<svg width="261" height="261" viewBox="0 0 261 261" fill="none" xmlns="http://www.w3.org/2000/svg">
<g filter="url(#filter0_d_25_400)">
<path d="M40.9329 100.297C40.9329 70.127 40.9329 55.042 50.3054 45.6695C59.678 36.2969 74.763 36.2969 104.933 36.2969H156.933C187.103 36.2969 202.188 36.2969 211.56 45.6695C220.933 55.042 220.933 70.127 220.933 100.297V152.297C220.933 182.467 220.933 197.552 211.56 206.924C202.188 216.297 187.103 216.297 156.933 216.297H104.933C74.763 216.297 59.678 216.297 50.3054 206.924C40.9329 197.552 40.9329 182.467 40.9329 152.297V100.297Z" fill="white"/>
<path d="M50.3054 206.924L49.5983 207.631L50.3054 206.924ZM211.56 206.924L210.853 206.217L211.56 206.924ZM211.56 45.6695L212.267 44.9624L211.56 45.6695ZM104.933 37.2969H156.933V35.2969H104.933V37.2969ZM219.933 100.297V152.297H221.933V100.297H219.933ZM156.933 215.297H104.933V217.297H156.933V215.297ZM41.9329 152.297V100.297H39.9329V152.297H41.9329ZM104.933 215.297C89.8196 215.297 78.5853 215.295 69.9534 214.134C61.3503 212.978 55.4821 210.687 51.0126 206.217L49.5983 207.631C54.5014 212.534 60.862 214.93 69.6869 216.116C78.4831 217.299 89.8762 217.297 104.933 217.297V215.297ZM39.9329 152.297C39.9329 167.354 39.9307 178.747 41.1134 187.543C42.2998 196.368 44.6953 202.728 49.5983 207.631L51.0126 206.217C46.543 201.748 44.2522 195.879 43.0955 187.276C41.935 178.644 41.9329 167.41 41.9329 152.297H39.9329ZM219.933 152.297C219.933 167.41 219.931 178.644 218.77 187.276C217.614 195.879 215.323 201.748 210.853 206.217L212.267 207.631C217.17 202.728 219.566 196.368 220.752 187.543C221.935 178.747 221.933 167.354 221.933 152.297H219.933ZM156.933 217.297C171.99 217.297 183.383 217.299 192.179 216.116C201.004 214.93 207.364 212.534 212.267 207.631L210.853 206.217C206.384 210.687 200.515 212.978 191.912 214.134C183.28 215.295 172.046 215.297 156.933 215.297V217.297ZM156.933 37.2969C172.046 37.2969 183.28 37.299 191.912 38.4595C200.515 39.6162 206.384 41.907 210.853 46.3766L212.267 44.9624C207.364 40.0593 201.004 37.6638 192.179 36.4774C183.383 35.2948 171.99 35.2969 156.933 35.2969V37.2969ZM221.933 100.297C221.933 85.2402 221.935 73.8471 220.752 65.0509C219.566 56.226 217.17 49.8654 212.267 44.9624L210.853 46.3766C215.323 50.8461 217.614 56.7143 218.77 65.3174C219.931 73.9493 219.933 85.1837 219.933 100.297H221.933ZM104.933 35.2969C89.8762 35.2969 78.4831 35.2948 69.6869 36.4774C60.862 37.6638 54.5014 40.0593 49.5983 44.9624L51.0126 46.3766C55.4821 41.907 61.3503 39.6162 69.9534 38.4595C78.5853 37.299 89.8196 37.2969 104.933 37.2969V35.2969ZM41.9329 100.297C41.9329 85.1837 41.935 73.9493 43.0955 65.3174C44.2522 56.7143 46.543 50.8461 51.0126 46.3766L49.5983 44.9624C44.6953 49.8654 42.2998 56.226 41.1134 65.0509C39.9307 73.8471 39.9329 85.2402 39.9329 100.297H41.9329Z" fill="#D9D9D9"/>
</g>
<path d="M142.343 112.011L132.343 121.322L123.059 102.59L127.855 91.8186C129.067 89.6701 131.049 89.6417 132.262 91.8186L142.343 112.011Z" fill="#FFA000"/>
<path d="M132.347 121.318L94.9379 156.113L123.063 102.59L132.347 121.318Z" fill="#F57F17"/>
<path d="M153.309 97.7697C155.101 96.063 156.945 96.6387 157.412 99.0629L167.137 155.642L134.88 175.007C133.749 175.64 130.749 175.887 130.749 175.887C130.749 175.887 128.021 175.555 126.975 174.979L94.9379 156.113L153.309 97.7697Z" fill="#FFCA28"/>
<path d="M123.063 102.59L94.9379 156.112L107.472 77.8816C107.943 75.4574 109.317 75.2101 110.557 77.3586L123.063 102.59Z" fill="#FFA000"/>
<defs>
<filter id="filter0_d_25_400" x="0.932861" y="0.296875" width="260" height="260" filterUnits="userSpaceOnUse" color-interpolation-filters="sRGB">
<feFlood flood-opacity="0" result="BackgroundImageFix"/>
<feColorMatrix in="SourceAlpha" type="matrix" values="0 0 0 0 0 0 0 0 0 0 0 0 0 0 0 0 0 0 127 0" result="hardAlpha"/>
<feOffset dy="4"/>
<feGaussianBlur stdDeviation="20"/>
<feComposite in2="hardAlpha" operator="out"/>
<feColorMatrix type="matrix" values="0 0 0 0 0.0367917 0 0 0 0 0.0348958 0 0 0 0 0.0484375 0 0 0 0.1 0"/>
<feBlend mode="normal" in2="BackgroundImageFix" result="effect1_dropShadow_25_400"/>
<feBlend mode="normal" in="SourceGraphic" in2="effect1_dropShadow_25_400" result="shape"/>
</filter>
</defs>
</svg>
