<svg width="261" height="261" viewBox="0 0 261 261" fill="none" xmlns="http://www.w3.org/2000/svg">
<g filter="url(#filter0_d_22_672)">
<path d="M40.9329 100.406C40.9329 70.2359 40.9329 55.1509 50.3054 45.7783C59.678 36.4058 74.763 36.4058 104.933 36.4058H156.933C187.103 36.4058 202.188 36.4058 211.56 45.7783C220.933 55.1509 220.933 70.2359 220.933 100.406V152.406C220.933 182.576 220.933 197.661 211.56 207.033C202.188 216.406 187.103 216.406 156.933 216.406H104.933C74.763 216.406 59.678 216.406 50.3054 207.033C40.9329 197.661 40.9329 182.576 40.9329 152.406V100.406Z" fill="white"/>
<path d="M50.3054 207.033L49.5983 207.74L50.3054 207.033ZM211.56 207.033L210.853 206.326L211.56 207.033ZM211.56 45.7783L212.267 45.0712L211.56 45.7783ZM104.933 37.4058H156.933V35.4058H104.933V37.4058ZM219.933 100.406V152.406H221.933V100.406H219.933ZM156.933 215.406H104.933V217.406H156.933V215.406ZM41.9329 152.406V100.406H39.9329V152.406H41.9329ZM104.933 215.406C89.8196 215.406 78.5853 215.404 69.9534 214.243C61.3503 213.086 55.4821 210.796 51.0126 206.326L49.5983 207.74C54.5014 212.643 60.862 215.039 69.6869 216.225C78.4831 217.408 89.8762 217.406 104.933 217.406V215.406ZM39.9329 152.406C39.9329 167.462 39.9307 178.856 41.1134 187.652C42.2998 196.477 44.6953 202.837 49.5983 207.74L51.0126 206.326C46.543 201.857 44.2522 195.988 43.0955 187.385C41.935 178.753 41.9329 167.519 41.9329 152.406H39.9329ZM219.933 152.406C219.933 167.519 219.931 178.753 218.77 187.385C217.614 195.988 215.323 201.857 210.853 206.326L212.267 207.74C217.17 202.837 219.566 196.477 220.752 187.652C221.935 178.856 221.933 167.462 221.933 152.406H219.933ZM156.933 217.406C171.99 217.406 183.383 217.408 192.179 216.225C201.004 215.039 207.364 212.643 212.267 207.74L210.853 206.326C206.384 210.796 200.515 213.086 191.912 214.243C183.28 215.404 172.046 215.406 156.933 215.406V217.406ZM156.933 37.4058C172.046 37.4058 183.28 37.4079 191.912 38.5684C200.515 39.7251 206.384 42.0159 210.853 46.4855L212.267 45.0712C207.364 40.1682 201.004 37.7727 192.179 36.5863C183.383 35.4036 171.99 35.4058 156.933 35.4058V37.4058ZM221.933 100.406C221.933 85.3491 221.935 73.956 220.752 65.1598C219.566 56.3349 217.17 49.9743 212.267 45.0712L210.853 46.4855C215.323 50.955 217.614 56.8232 218.77 65.4263C219.931 74.0582 219.933 85.2925 219.933 100.406H221.933ZM104.933 35.4058C89.8762 35.4058 78.4831 35.4036 69.6869 36.5863C60.862 37.7727 54.5014 40.1682 49.5983 45.0712L51.0126 46.4855C55.4821 42.0159 61.3503 39.7251 69.9534 38.5684C78.5853 37.4079 89.8196 37.4058 104.933 37.4058V35.4058ZM41.9329 100.406C41.9329 85.2925 41.935 74.0582 43.0955 65.4263C44.2522 56.8232 46.543 50.955 51.0126 46.4855L49.5983 45.0712C44.6953 49.9743 42.2998 56.3349 41.1134 65.1598C39.9307 73.956 39.9329 85.3491 39.9329 100.406H41.9329Z" fill="#D9D9D9"/>
</g>
<path d="M131.313 76C103.697 76 81.3134 98.384 81.3134 126C81.3134 153.616 103.697 176 131.313 176C158.929 176 181.313 153.616 181.313 126C181.313 98.384 158.929 76 131.313 76ZM92.0574 126.52L130.793 165.256C109.521 164.98 92.3334 147.792 92.0574 126.52ZM140.101 164.276L93.0374 117.212C97.0294 99.76 112.649 86.736 131.313 86.736C144.357 86.736 155.917 93.1 163.057 102.892L157.621 107.688C151.829 99.384 142.205 93.948 131.313 93.948C117.445 93.948 105.633 102.756 101.169 115.084L142.229 156.14C152.201 152.528 159.869 144.112 162.437 133.688H145.421V126H170.581C170.577 144.664 157.553 160.284 140.101 164.276Z" fill="#744C9E"/>
<defs>
<filter id="filter0_d_22_672" x="0.932861" y="0.405762" width="260" height="260" filterUnits="userSpaceOnUse" color-interpolation-filters="sRGB">
<feFlood flood-opacity="0" result="BackgroundImageFix"/>
<feColorMatrix in="SourceAlpha" type="matrix" values="0 0 0 0 0 0 0 0 0 0 0 0 0 0 0 0 0 0 127 0" result="hardAlpha"/>
<feOffset dy="4"/>
<feGaussianBlur stdDeviation="20"/>
<feComposite in2="hardAlpha" operator="out"/>
<feColorMatrix type="matrix" values="0 0 0 0 0.0367917 0 0 0 0 0.0348958 0 0 0 0 0.0484375 0 0 0 0.1 0"/>
<feBlend mode="normal" in2="BackgroundImageFix" result="effect1_dropShadow_22_672"/>
<feBlend mode="normal" in="SourceGraphic" in2="effect1_dropShadow_22_672" result="shape"/>
</filter>
</defs>
</svg>
