<svg width="261" height="261" viewBox="0 0 261 261" fill="none" xmlns="http://www.w3.org/2000/svg">
<g filter="url(#filter0_d_33_2142)">
<path d="M40.209 100.891C40.209 70.721 40.209 55.636 49.5816 46.2635C58.9542 36.8909 74.0391 36.8909 104.209 36.8909H156.209C186.379 36.8909 201.464 36.8909 210.836 46.2635C220.209 55.636 220.209 70.721 220.209 100.891V152.891C220.209 183.061 220.209 198.146 210.836 207.518C201.464 216.891 186.379 216.891 156.209 216.891H104.209C74.0391 216.891 58.9542 216.891 49.5816 207.518C40.209 198.146 40.209 183.061 40.209 152.891V100.891Z" fill="white"/>
<path d="M49.5816 207.518L48.8745 208.225L49.5816 207.518ZM210.836 207.518L210.129 206.811L210.836 207.518ZM210.836 46.2635L211.544 45.5563L210.836 46.2635ZM104.209 37.8909H156.209V35.8909H104.209V37.8909ZM219.209 100.891V152.891H221.209V100.891H219.209ZM156.209 215.891H104.209V217.891H156.209V215.891ZM41.209 152.891V100.891H39.209V152.891H41.209ZM104.209 215.891C89.0958 215.891 77.8615 215.889 69.2295 214.728C60.6264 213.572 54.7582 211.281 50.2887 206.811L48.8745 208.225C53.7775 213.128 60.1381 215.524 68.963 216.71C77.7592 217.893 89.1523 217.891 104.209 217.891V215.891ZM39.209 152.891C39.209 167.948 39.2069 179.341 40.3895 188.137C41.576 196.962 43.9714 203.322 48.8745 208.225L50.2887 206.811C45.8192 202.342 43.5283 196.473 42.3716 187.87C41.2111 179.238 41.209 168.004 41.209 152.891H39.209ZM219.209 152.891C219.209 168.004 219.207 179.238 218.046 187.87C216.89 196.473 214.599 202.342 210.129 206.811L211.544 208.225C216.447 203.322 218.842 196.962 220.028 188.137C221.211 179.341 221.209 167.948 221.209 152.891H219.209ZM156.209 217.891C171.266 217.891 182.659 217.893 191.455 216.71C200.28 215.524 206.64 213.128 211.544 208.225L210.129 206.811C205.66 211.281 199.792 213.572 191.188 214.728C182.557 215.889 171.322 215.891 156.209 215.891V217.891ZM156.209 37.8909C171.322 37.8909 182.557 37.893 191.188 39.0535C199.792 40.2102 205.66 42.501 210.129 46.9706L211.544 45.5563C206.64 40.6533 200.28 38.2578 191.455 37.0714C182.659 35.8887 171.266 35.8909 156.209 35.8909V37.8909ZM221.209 100.891C221.209 85.8342 221.211 74.4411 220.028 65.6449C218.842 56.82 216.447 50.4594 211.544 45.5563L210.129 46.9706C214.599 51.4401 216.89 57.3083 218.046 65.9114C219.207 74.5433 219.209 85.7777 219.209 100.891H221.209ZM104.209 35.8909C89.1523 35.8909 77.7592 35.8887 68.963 37.0714C60.1381 38.2578 53.7775 40.6533 48.8745 45.5563L50.2887 46.9706C54.7582 42.501 60.6264 40.2102 69.2295 39.0535C77.8615 37.893 89.0958 37.8909 104.209 37.8909V35.8909ZM41.209 100.891C41.209 85.7777 41.2111 74.5433 42.3716 65.9114C43.5283 57.3083 45.8192 51.4401 50.2887 46.9706L48.8745 45.5563C43.9714 50.4594 41.576 56.82 40.3895 65.6449C39.2069 74.4411 39.209 85.8342 39.209 100.891H41.209Z" fill="#D9D9D9"/>
</g>
<path d="M154.082 138.567L156.971 131.262H165.313L161.354 120.18L166.305 107.66L180.485 145.31H170.027L167.604 138.567H154.082Z" fill="#3D3D3D"/>
<path d="M145.161 145.311L160.341 107.66H150.277L139.893 131.99L132.509 107.66H124.773L116.844 131.99L111.253 120.904L106.193 136.493L111.33 145.311H121.234L128.399 123.491L135.23 145.311H145.161Z" fill="#5A0FC8"/>
<path d="M90.0378 132.386H96.2367C98.1147 132.386 99.7868 132.176 101.253 131.757L102.857 126.818L107.337 113.014C106.996 112.473 106.606 111.961 106.168 111.479C103.867 108.933 100.501 107.66 96.0698 107.66H80.485V145.31H90.0378V132.386ZM98.2434 116.322C99.1417 117.226 99.5911 118.436 99.5911 119.953C99.5911 121.48 99.1958 122.692 98.406 123.587C97.5393 124.583 95.9444 125.08 93.6201 125.08H90.0378V114.965H93.6464C95.8124 114.965 97.3446 115.417 98.2434 116.322Z" fill="#3D3D3D"/>
<defs>
<filter id="filter0_d_33_2142" x="0.208984" y="0.890869" width="260" height="260" filterUnits="userSpaceOnUse" color-interpolation-filters="sRGB">
<feFlood flood-opacity="0" result="BackgroundImageFix"/>
<feColorMatrix in="SourceAlpha" type="matrix" values="0 0 0 0 0 0 0 0 0 0 0 0 0 0 0 0 0 0 127 0" result="hardAlpha"/>
<feOffset dy="4"/>
<feGaussianBlur stdDeviation="20"/>
<feComposite in2="hardAlpha" operator="out"/>
<feColorMatrix type="matrix" values="0 0 0 0 0.0367917 0 0 0 0 0.0348958 0 0 0 0 0.0484375 0 0 0 0.1 0"/>
<feBlend mode="normal" in2="BackgroundImageFix" result="effect1_dropShadow_33_2142"/>
<feBlend mode="normal" in="SourceGraphic" in2="effect1_dropShadow_33_2142" result="shape"/>
</filter>
</defs>
</svg>
