<svg width="261" height="261" viewBox="0 0 261 261" fill="none" xmlns="http://www.w3.org/2000/svg">
<g filter="url(#filter0_d_22_653)">
<path d="M40.9329 100.406C40.9329 70.2359 40.9329 55.1509 50.3054 45.7783C59.678 36.4058 74.763 36.4058 104.933 36.4058H156.933C187.103 36.4058 202.188 36.4058 211.56 45.7783C220.933 55.1509 220.933 70.2359 220.933 100.406V152.406C220.933 182.576 220.933 197.661 211.56 207.033C202.188 216.406 187.103 216.406 156.933 216.406H104.933C74.763 216.406 59.678 216.406 50.3054 207.033C40.9329 197.661 40.9329 182.576 40.9329 152.406V100.406Z" fill="white"/>
<path d="M50.3054 207.033L49.5983 207.74L50.3054 207.033ZM211.56 207.033L210.853 206.326L211.56 207.033ZM211.56 45.7783L212.267 45.0712L211.56 45.7783ZM104.933 37.4058H156.933V35.4058H104.933V37.4058ZM219.933 100.406V152.406H221.933V100.406H219.933ZM156.933 215.406H104.933V217.406H156.933V215.406ZM41.9329 152.406V100.406H39.9329V152.406H41.9329ZM104.933 215.406C89.8196 215.406 78.5853 215.404 69.9534 214.243C61.3503 213.086 55.4821 210.796 51.0126 206.326L49.5983 207.74C54.5014 212.643 60.862 215.039 69.6869 216.225C78.4831 217.408 89.8762 217.406 104.933 217.406V215.406ZM39.9329 152.406C39.9329 167.462 39.9307 178.856 41.1134 187.652C42.2998 196.477 44.6953 202.837 49.5983 207.74L51.0126 206.326C46.543 201.857 44.2522 195.988 43.0955 187.385C41.935 178.753 41.9329 167.519 41.9329 152.406H39.9329ZM219.933 152.406C219.933 167.519 219.931 178.753 218.77 187.385C217.614 195.988 215.323 201.857 210.853 206.326L212.267 207.74C217.17 202.837 219.566 196.477 220.752 187.652C221.935 178.856 221.933 167.462 221.933 152.406H219.933ZM156.933 217.406C171.99 217.406 183.383 217.408 192.179 216.225C201.004 215.039 207.364 212.643 212.267 207.74L210.853 206.326C206.384 210.796 200.515 213.086 191.912 214.243C183.28 215.404 172.046 215.406 156.933 215.406V217.406ZM156.933 37.4058C172.046 37.4058 183.28 37.4079 191.912 38.5684C200.515 39.7251 206.384 42.0159 210.853 46.4855L212.267 45.0712C207.364 40.1682 201.004 37.7727 192.179 36.5863C183.383 35.4036 171.99 35.4058 156.933 35.4058V37.4058ZM221.933 100.406C221.933 85.3491 221.935 73.956 220.752 65.1598C219.566 56.3349 217.17 49.9743 212.267 45.0712L210.853 46.4855C215.323 50.955 217.614 56.8232 218.77 65.4263C219.931 74.0582 219.933 85.2925 219.933 100.406H221.933ZM104.933 35.4058C89.8762 35.4058 78.4831 35.4036 69.6869 36.5863C60.862 37.7727 54.5014 40.1682 49.5983 45.0712L51.0126 46.4855C55.4821 42.0159 61.3503 39.7251 69.9534 38.5684C78.5853 37.4079 89.8196 37.4058 104.933 37.4058V35.4058ZM41.9329 100.406C41.9329 85.2925 41.935 74.0582 43.0955 65.4263C44.2522 56.8232 46.543 50.955 51.0126 46.4855L49.5983 45.0712C44.6953 49.9743 42.2998 56.3349 41.1134 65.1598C39.9307 73.956 39.9329 85.3491 39.9329 100.406H41.9329Z" fill="#D9D9D9"/>
</g>
<path d="M150.327 144.834C154.017 144.452 156.817 141.271 156.689 137.453C156.562 133.636 153.381 130.581 149.563 130.581H149.309C145.363 130.709 142.31 134.017 142.437 137.962C142.564 139.871 143.328 141.525 144.473 142.671C140.146 151.197 133.529 157.433 123.603 162.65C116.859 166.214 109.86 167.486 102.861 166.596C97.1345 165.832 92.6806 163.287 89.8806 159.087C85.8087 152.852 85.4271 146.107 88.863 139.362C91.281 134.526 95.0982 130.963 97.5162 129.181C97.0072 127.527 96.2435 124.727 95.8619 122.691C77.4099 136.054 79.3189 154.124 84.9181 162.65C89.1173 169.014 97.6435 172.959 107.06 172.959C109.605 172.959 112.15 172.704 114.695 172.068C130.984 168.886 143.328 159.214 150.327 144.834ZM172.724 129.054C163.052 117.728 148.8 111.493 132.511 111.493H130.475C129.33 109.202 126.912 107.675 124.24 107.675H123.985C120.04 107.802 116.986 111.111 117.113 115.056C117.241 118.873 120.422 121.928 124.24 121.928H124.494C127.294 121.8 129.711 120.019 130.729 117.601H133.02C142.692 117.601 151.854 120.4 160.126 125.873C166.488 130.072 171.069 135.545 173.614 142.162C175.778 147.507 175.65 152.724 173.36 157.179C169.797 163.923 163.816 167.614 155.926 167.614C150.836 167.614 146 166.086 143.455 164.941C142.055 166.214 139.51 168.25 137.728 169.523C143.201 172.068 148.8 173.468 154.144 173.468C166.361 173.468 175.396 166.723 178.832 159.978C182.522 152.597 182.267 139.871 172.724 129.054ZM108.078 146.997C108.206 150.815 111.387 153.869 115.204 153.869H115.459C119.404 153.742 122.458 150.433 122.331 146.488C122.204 142.67 119.022 139.616 115.204 139.616H114.95C114.695 139.616 114.313 139.616 114.06 139.743C108.842 131.09 106.679 121.673 107.442 111.492C107.951 103.857 110.496 97.2391 114.95 91.7668C118.64 87.0583 125.767 84.7676 130.603 84.6407C144.091 84.386 149.817 101.184 150.199 107.929C151.854 108.311 154.653 109.202 156.562 109.838C155.035 89.2223 142.31 78.5325 130.094 78.5325C118.64 78.5325 108.078 86.8043 103.879 99.0211C98.0251 115.31 101.843 130.963 108.969 143.307C108.333 144.198 107.951 145.598 108.078 146.998V146.997Z" fill="#764ABC"/>
<defs>
<filter id="filter0_d_22_653" x="0.932861" y="0.405762" width="260" height="260" filterUnits="userSpaceOnUse" color-interpolation-filters="sRGB">
<feFlood flood-opacity="0" result="BackgroundImageFix"/>
<feColorMatrix in="SourceAlpha" type="matrix" values="0 0 0 0 0 0 0 0 0 0 0 0 0 0 0 0 0 0 127 0" result="hardAlpha"/>
<feOffset dy="4"/>
<feGaussianBlur stdDeviation="20"/>
<feComposite in2="hardAlpha" operator="out"/>
<feColorMatrix type="matrix" values="0 0 0 0 0.0367917 0 0 0 0 0.0348958 0 0 0 0 0.0484375 0 0 0 0.1 0"/>
<feBlend mode="normal" in2="BackgroundImageFix" result="effect1_dropShadow_22_653"/>
<feBlend mode="normal" in="SourceGraphic" in2="effect1_dropShadow_22_653" result="shape"/>
</filter>
</defs>
</svg>
