<svg width="261" height="261" viewBox="0 0 261 261" fill="none" xmlns="http://www.w3.org/2000/svg">
<g filter="url(#filter0_d_22_654)">
<path d="M40.724 100.891C40.724 70.721 40.724 55.636 50.0966 46.2635C59.4692 36.8909 74.5541 36.8909 104.724 36.8909H156.724C186.894 36.8909 201.979 36.8909 211.351 46.2635C220.724 55.636 220.724 70.721 220.724 100.891V152.891C220.724 183.061 220.724 198.146 211.351 207.518C201.979 216.891 186.894 216.891 156.724 216.891H104.724C74.5541 216.891 59.4692 216.891 50.0966 207.518C40.724 198.146 40.724 183.061 40.724 152.891V100.891Z" fill="white"/>
<path d="M50.0966 207.518L49.3895 208.225L50.0966 207.518ZM211.351 207.518L210.644 206.811L211.351 207.518ZM211.351 46.2635L212.059 45.5563L211.351 46.2635ZM104.724 37.8909H156.724V35.8909H104.724V37.8909ZM219.724 100.891V152.891H221.724V100.891H219.724ZM156.724 215.891H104.724V217.891H156.724V215.891ZM41.724 152.891V100.891H39.724V152.891H41.724ZM104.724 215.891C89.6108 215.891 78.3765 215.889 69.7445 214.728C61.1414 213.572 55.2732 211.281 50.8037 206.811L49.3895 208.225C54.2925 213.128 60.6531 215.524 69.4781 216.71C78.2742 217.893 89.6673 217.891 104.724 217.891V215.891ZM39.724 152.891C39.724 167.948 39.7219 179.341 40.9045 188.137C42.091 196.962 44.4864 203.322 49.3895 208.225L50.8037 206.811C46.3342 202.342 44.0433 196.473 42.8867 187.87C41.7261 179.238 41.724 168.004 41.724 152.891H39.724ZM219.724 152.891C219.724 168.004 219.722 179.238 218.561 187.87C217.405 196.473 215.114 202.342 210.644 206.811L212.059 208.225C216.962 203.322 219.357 196.962 220.544 188.137C221.726 179.341 221.724 167.948 221.724 152.891H219.724ZM156.724 217.891C171.781 217.891 183.174 217.893 191.97 216.71C200.795 215.524 207.155 213.128 212.059 208.225L210.644 206.811C206.175 211.281 200.307 213.572 191.703 214.728C183.072 215.889 171.837 215.891 156.724 215.891V217.891ZM156.724 37.8909C171.837 37.8909 183.072 37.893 191.703 39.0535C200.307 40.2102 206.175 42.501 210.644 46.9706L212.059 45.5563C207.155 40.6533 200.795 38.2578 191.97 37.0714C183.174 35.8887 171.781 35.8909 156.724 35.8909V37.8909ZM221.724 100.891C221.724 85.8342 221.726 74.4411 220.544 65.6449C219.357 56.82 216.962 50.4594 212.059 45.5563L210.644 46.9706C215.114 51.4401 217.405 57.3083 218.561 65.9114C219.722 74.5433 219.724 85.7777 219.724 100.891H221.724ZM104.724 35.8909C89.6673 35.8909 78.2742 35.8887 69.4781 37.0714C60.6531 38.2578 54.2925 40.6533 49.3895 45.5563L50.8037 46.9706C55.2732 42.501 61.1414 40.2102 69.7445 39.0535C78.3765 37.893 89.6108 37.8909 104.724 37.8909V35.8909ZM41.724 100.891C41.724 85.7777 41.7261 74.5433 42.8867 65.9114C44.0433 57.3083 46.3342 51.4401 50.8037 46.9706L49.3895 45.5563C44.4864 50.4594 42.091 56.82 40.9045 65.6449C39.7219 74.4411 39.724 85.8342 39.724 100.891H41.724Z" fill="#D9D9D9"/>
</g>
<path d="M130.828 96.4933C117.495 96.4933 109.161 103.158 105.828 116.487C110.828 109.822 116.662 107.324 123.328 108.989C127.132 109.94 129.851 112.699 132.86 115.753C137.762 120.727 143.436 126.484 155.829 126.484C169.161 126.484 177.496 119.819 180.828 106.49C175.829 113.155 169.996 115.654 163.328 113.989C159.525 113.038 156.807 110.278 153.797 107.225C148.895 102.25 143.221 96.4933 130.828 96.4933ZM105.828 126.484C92.4952 126.484 84.1609 133.149 80.8284 146.479C85.8277 139.814 91.6612 137.315 98.3287 138.982C102.131 139.933 104.85 142.692 107.86 145.744C112.762 150.719 118.436 156.477 130.828 156.477C144.162 156.477 152.495 149.812 155.829 136.482C150.828 143.147 144.995 145.647 138.329 143.98C134.525 143.031 131.806 140.27 128.796 137.217C123.895 132.243 118.221 126.484 105.828 126.484Z" fill="#06B6D4"/>
<defs>
<filter id="filter0_d_22_654" x="0.723999" y="0.890869" width="260" height="260" filterUnits="userSpaceOnUse" color-interpolation-filters="sRGB">
<feFlood flood-opacity="0" result="BackgroundImageFix"/>
<feColorMatrix in="SourceAlpha" type="matrix" values="0 0 0 0 0 0 0 0 0 0 0 0 0 0 0 0 0 0 127 0" result="hardAlpha"/>
<feOffset dy="4"/>
<feGaussianBlur stdDeviation="20"/>
<feComposite in2="hardAlpha" operator="out"/>
<feColorMatrix type="matrix" values="0 0 0 0 0.0367917 0 0 0 0 0.0348958 0 0 0 0 0.0484375 0 0 0 0.1 0"/>
<feBlend mode="normal" in2="BackgroundImageFix" result="effect1_dropShadow_22_654"/>
<feBlend mode="normal" in="SourceGraphic" in2="effect1_dropShadow_22_654" result="shape"/>
</filter>
</defs>
</svg>
