<svg width="261" height="261" viewBox="0 0 261 261" fill="none" xmlns="http://www.w3.org/2000/svg">
<g filter="url(#filter0_d_22_688)">
<path d="M40.724 100.297C40.724 70.127 40.724 55.042 50.0966 45.6695C59.4692 36.2969 74.5541 36.2969 104.724 36.2969H156.724C186.894 36.2969 201.979 36.2969 211.351 45.6695C220.724 55.042 220.724 70.127 220.724 100.297V152.297C220.724 182.467 220.724 197.552 211.351 206.924C201.979 216.297 186.894 216.297 156.724 216.297H104.724C74.5541 216.297 59.4692 216.297 50.0966 206.924C40.724 197.552 40.724 182.467 40.724 152.297V100.297Z" fill="white"/>
<path d="M50.0966 206.924L49.3895 207.631L50.0966 206.924ZM211.351 206.924L210.644 206.217L211.351 206.924ZM211.351 45.6695L212.059 44.9624L211.351 45.6695ZM104.724 37.2969H156.724V35.2969H104.724V37.2969ZM219.724 100.297V152.297H221.724V100.297H219.724ZM156.724 215.297H104.724V217.297H156.724V215.297ZM41.724 152.297V100.297H39.724V152.297H41.724ZM104.724 215.297C89.6108 215.297 78.3765 215.295 69.7445 214.134C61.1414 212.978 55.2732 210.687 50.8037 206.217L49.3895 207.631C54.2925 212.534 60.6531 214.93 69.4781 216.116C78.2742 217.299 89.6673 217.297 104.724 217.297V215.297ZM39.724 152.297C39.724 167.354 39.7219 178.747 40.9045 187.543C42.091 196.368 44.4864 202.728 49.3895 207.631L50.8037 206.217C46.3342 201.748 44.0433 195.879 42.8867 187.276C41.7261 178.644 41.724 167.41 41.724 152.297H39.724ZM219.724 152.297C219.724 167.41 219.722 178.644 218.561 187.276C217.405 195.879 215.114 201.748 210.644 206.217L212.059 207.631C216.962 202.728 219.357 196.368 220.544 187.543C221.726 178.747 221.724 167.354 221.724 152.297H219.724ZM156.724 217.297C171.781 217.297 183.174 217.299 191.97 216.116C200.795 214.93 207.155 212.534 212.059 207.631L210.644 206.217C206.175 210.687 200.307 212.978 191.703 214.134C183.072 215.295 171.837 215.297 156.724 215.297V217.297ZM156.724 37.2969C171.837 37.2969 183.072 37.299 191.703 38.4595C200.307 39.6162 206.175 41.907 210.644 46.3766L212.059 44.9624C207.155 40.0593 200.795 37.6638 191.97 36.4774C183.174 35.2948 171.781 35.2969 156.724 35.2969V37.2969ZM221.724 100.297C221.724 85.2402 221.726 73.8471 220.544 65.0509C219.357 56.226 216.962 49.8654 212.059 44.9624L210.644 46.3766C215.114 50.8461 217.405 56.7143 218.561 65.3174C219.722 73.9493 219.724 85.1837 219.724 100.297H221.724ZM104.724 35.2969C89.6673 35.2969 78.2742 35.2948 69.4781 36.4774C60.6531 37.6638 54.2925 40.0593 49.3895 44.9624L50.8037 46.3766C55.2732 41.907 61.1414 39.6162 69.7445 38.4595C78.3765 37.299 89.6108 37.2969 104.724 37.2969V35.2969ZM41.724 100.297C41.724 85.1837 41.7261 73.9493 42.8867 65.3174C44.0433 56.7143 46.3342 50.8461 50.8037 46.3766L49.3895 44.9624C44.4864 49.8654 42.091 56.226 40.9045 65.0509C39.7219 73.8471 39.724 85.2402 39.724 100.297H41.724Z" fill="#D9D9D9"/>
</g>
<path d="M130.468 76.1511C105.082 76.1511 106.667 87.1601 106.667 87.1601L106.695 98.5658H130.921V101.99H97.073C97.073 101.99 80.8284 100.148 80.8284 125.762C80.8284 151.378 95.0071 150.469 95.0071 150.469H103.469V138.583C103.469 138.583 103.013 124.404 117.421 124.404H141.449C141.449 124.404 154.948 124.622 154.948 111.357V89.4246C154.948 89.4246 156.999 76.1511 130.468 76.1511ZM117.11 83.8212C117.683 83.8207 118.249 83.9331 118.778 84.1519C119.307 84.3707 119.788 84.6917 120.193 85.0965C120.598 85.5013 120.919 85.982 121.138 86.511C121.356 87.0399 121.469 87.6069 121.468 88.1794C121.469 88.7518 121.356 89.3188 121.138 89.8478C120.919 90.3768 120.598 90.8574 120.193 91.2622C119.788 91.667 119.307 91.988 118.778 92.2068C118.249 92.4257 117.683 92.538 117.11 92.5375C116.538 92.538 115.971 92.4257 115.442 92.2068C114.913 91.988 114.432 91.667 114.027 91.2622C113.622 90.8574 113.301 90.3768 113.083 89.8478C112.864 89.3188 112.751 88.7518 112.752 88.1794C112.751 87.6069 112.864 87.0399 113.083 86.511C113.301 85.982 113.622 85.5013 114.027 85.0965C114.432 84.6917 114.913 84.3707 115.442 84.1519C115.971 83.9331 116.538 83.8207 117.11 83.8212Z" fill="url(#paint0_linear_22_688)"/>
<path d="M131.189 175.631C156.575 175.631 154.99 164.622 154.99 164.622L154.962 153.217H130.736V149.793H164.584C164.584 149.793 180.828 151.635 180.828 126.02C180.828 100.405 166.65 101.313 166.65 101.313H158.188V113.199C158.188 113.199 158.644 127.378 144.235 127.378H120.208C120.208 127.378 106.708 127.16 106.708 140.425V162.358C106.708 162.358 104.659 175.631 131.189 175.631H131.189ZM144.547 167.962C143.975 167.962 143.408 167.85 142.879 167.631C142.35 167.412 141.869 167.091 141.464 166.687C141.059 166.282 140.738 165.801 140.52 165.272C140.301 164.743 140.188 164.176 140.189 163.604C140.188 163.031 140.301 162.464 140.519 161.935C140.738 161.406 141.059 160.925 141.464 160.521C141.869 160.116 142.35 159.795 142.879 159.576C143.408 159.357 143.975 159.245 144.547 159.245C145.12 159.245 145.686 159.357 146.215 159.576C146.744 159.795 147.225 160.116 147.63 160.52C148.035 160.925 148.356 161.406 148.575 161.935C148.793 162.464 148.906 163.031 148.905 163.603C148.906 164.176 148.793 164.743 148.575 165.272C148.356 165.801 148.035 166.281 147.63 166.686C147.225 167.091 146.744 167.412 146.215 167.631C145.686 167.85 145.12 167.962 144.547 167.961V167.962Z" fill="url(#paint1_linear_22_688)"/>
<defs>
<filter id="filter0_d_22_688" x="0.723999" y="0.296875" width="260" height="260" filterUnits="userSpaceOnUse" color-interpolation-filters="sRGB">
<feFlood flood-opacity="0" result="BackgroundImageFix"/>
<feColorMatrix in="SourceAlpha" type="matrix" values="0 0 0 0 0 0 0 0 0 0 0 0 0 0 0 0 0 0 127 0" result="hardAlpha"/>
<feOffset dy="4"/>
<feGaussianBlur stdDeviation="20"/>
<feComposite in2="hardAlpha" operator="out"/>
<feColorMatrix type="matrix" values="0 0 0 0 0.0367917 0 0 0 0 0.0348958 0 0 0 0 0.0484375 0 0 0 0.1 0"/>
<feBlend mode="normal" in2="BackgroundImageFix" result="effect1_dropShadow_22_688"/>
<feBlend mode="normal" in="SourceGraphic" in2="effect1_dropShadow_22_688" result="shape"/>
</filter>
<linearGradient id="paint0_linear_22_688" x1="90.4383" y1="85.0987" x2="139.995" y2="134.161" gradientUnits="userSpaceOnUse">
<stop stop-color="#387EB8"/>
<stop offset="1" stop-color="#366994"/>
</linearGradient>
<linearGradient id="paint1_linear_22_688" x1="120.856" y1="116.604" x2="174.075" y2="166.913" gradientUnits="userSpaceOnUse">
<stop stop-color="#FFE052"/>
<stop offset="1" stop-color="#FFC331"/>
</linearGradient>
</defs>
</svg>
